<svg width="438" height="140" viewBox="0 0 438 140" fill="none" xmlns="http://www.w3.org/2000/svg">
<g filter="url(#filter0_d_0_1962)">
<rect x="44" y="44" width="372" height="52" rx="26" fill="white"/>
</g>
<g clip-path="url(#clip0_0_1962)">
<rect x="52" y="52" width="36" height="35" rx="17.5" fill="#954AFC"/>
<path d="M70.2084 63.6562V63.9435C70.3973 63.9763 70.5803 64.0172 70.7456 64.0581C70.9271 64.1032 71.0818 64.2132 71.1759 64.3639C71.27 64.5146 71.2957 64.6938 71.2473 64.862C71.1987 65.0302 71.08 65.1736 70.9173 65.2608C70.7546 65.348 70.5612 65.3718 70.3796 65.3271C70.058 65.2477 69.757 65.193 69.4883 65.1903C69.2727 65.1875 69.0543 65.2367 68.9157 65.3107C68.8538 65.3461 68.8243 65.3763 68.8123 65.3925C68.7971 65.4154 68.7899 65.4422 68.7917 65.469V65.4854C68.7977 65.4911 68.8182 65.5182 68.8893 65.5565C69.0604 65.6523 69.3143 65.7263 69.698 65.8328L69.7244 65.8409C70.0521 65.9312 70.4887 66.0542 70.8429 66.2594C71.2473 66.4945 71.6133 66.8857 71.622 67.4872C71.631 68.1023 71.2858 68.5508 70.8341 68.8133C70.6393 68.9233 70.4272 69.0044 70.2054 69.0539V69.3438C70.2054 69.7075 69.8897 70 69.497 70C69.1046 70 68.7887 69.7075 68.7887 69.3438V69.032C68.5084 68.969 68.2515 68.887 68.0331 68.8187C67.9713 68.7997 67.9122 68.7805 67.856 68.7641C67.7676 68.7368 67.6859 68.6937 67.6155 68.6371C67.5451 68.5806 67.4875 68.5118 67.4458 68.4346C67.4041 68.3574 67.3793 68.2733 67.3727 68.1872C67.3661 68.1011 67.3779 68.0147 67.4074 67.9328C67.4368 67.8509 67.4834 67.7752 67.5444 67.71C67.6054 67.6448 67.6797 67.5913 67.7631 67.5527C67.8464 67.5141 67.9371 67.4911 68.03 67.485C68.123 67.4789 68.2163 67.4899 68.3046 67.5172C68.3816 67.5419 68.4525 67.5636 68.5202 67.5857C68.9216 67.7114 69.2108 67.8016 69.5209 67.8125C69.757 67.8208 69.9664 67.7687 70.0875 67.7003C70.1435 67.6675 70.1702 67.6401 70.182 67.6211C70.1938 67.6047 70.2084 67.5719 70.2056 67.5089V67.5034C70.2056 67.4761 70.2056 67.4461 70.0875 67.3776C69.9192 67.2792 69.6654 67.2026 69.2876 67.0961L69.2314 67.0797C68.9126 66.9922 68.4935 66.8745 68.1571 66.6859C67.7588 66.4643 67.3751 66.0844 67.372 65.48C67.3692 64.8539 67.7528 64.4245 68.1897 64.1839C68.3786 64.0802 68.5821 64.0089 68.7858 63.9599V63.6562C68.7858 63.2925 69.1015 63 69.4942 63C69.8868 63 70.2025 63.2925 70.2025 63.6562H70.2084ZM77.77 72.1956C77.862 72.3112 77.9284 72.4425 77.9656 72.5819C78.0028 72.7213 78.0099 72.8661 77.9866 73.0081C77.9633 73.1501 77.91 73.2864 77.8297 73.4093C77.7495 73.5322 77.6439 73.6392 77.519 73.7242L73.7827 76.2753C73.0925 76.7461 72.2579 77 71.4008 77H61.9445C61.4222 77 61 76.6091 61 76.125V74.375C61 73.8909 61.4222 73.5 61.9445 73.5H63.0306L64.3556 72.5156C65.0257 72.0189 65.8586 71.7488 66.7168 71.75H71.389C71.9115 71.75 72.3335 72.1409 72.3335 72.625C72.3335 73.1091 71.9115 73.5 71.389 73.5H69.0279C68.7681 73.5 68.5556 73.6969 68.5556 73.9375C68.5556 74.1781 68.7681 74.375 69.0279 74.375H72.5873L76.12 71.9633C76.2448 71.8781 76.3865 71.8165 76.537 71.7821C76.6874 71.7477 76.8438 71.7411 76.997 71.7627C77.1503 71.7843 77.2974 71.8336 77.43 71.908C77.5627 71.9823 77.6782 72.0799 77.77 72.1956Z" fill="white"/>
</g>
<path d="M99.522 76V70.288L95.187 63.335H97.448L100.916 68.962H100.117L103.568 63.335H105.829L101.511 70.288V76H99.522ZM109.972 76.204C109.088 76.204 108.278 75.9943 107.541 75.575C106.816 75.1557 106.238 74.5833 105.807 73.858C105.376 73.1327 105.161 72.311 105.161 71.393C105.161 70.4637 105.376 69.642 105.807 68.928C106.238 68.2027 106.816 67.636 107.541 67.228C108.266 66.8087 109.077 66.599 109.972 66.599C110.879 66.599 111.689 66.8087 112.403 67.228C113.128 67.636 113.701 68.2027 114.12 68.928C114.551 69.642 114.766 70.4637 114.766 71.393C114.766 72.3223 114.551 73.1497 114.12 73.875C113.689 74.6003 113.111 75.1727 112.386 75.592C111.661 76 110.856 76.204 109.972 76.204ZM109.972 74.419C110.516 74.419 110.998 74.2887 111.417 74.028C111.836 73.7673 112.165 73.4103 112.403 72.957C112.652 72.4923 112.777 71.971 112.777 71.393C112.777 70.815 112.652 70.2993 112.403 69.846C112.165 69.3927 111.836 69.0357 111.417 68.775C110.998 68.5143 110.516 68.384 109.972 68.384C109.439 68.384 108.958 68.5143 108.527 68.775C108.108 69.0357 107.773 69.3927 107.524 69.846C107.286 70.2993 107.167 70.815 107.167 71.393C107.167 71.971 107.286 72.4923 107.524 72.957C107.773 73.4103 108.108 73.7673 108.527 74.028C108.958 74.2887 109.439 74.419 109.972 74.419ZM119.923 76.204C119.231 76.204 118.625 76.051 118.104 75.745C117.582 75.4277 117.174 74.9913 116.88 74.436C116.596 73.8693 116.455 73.2177 116.455 72.481V66.803H118.376V72.311C118.376 72.7303 118.461 73.0987 118.631 73.416C118.801 73.7333 119.039 73.9827 119.345 74.164C119.651 74.334 120.002 74.419 120.399 74.419C120.807 74.419 121.164 74.3283 121.47 74.147C121.776 73.9657 122.014 73.7107 122.184 73.382C122.365 73.0533 122.456 72.668 122.456 72.226V66.803H124.36V76H122.541V74.198L122.745 74.436C122.529 75.0027 122.172 75.439 121.674 75.745C121.175 76.051 120.591 76.204 119.923 76.204ZM129.574 76V63.131H131.495V68.605L131.189 68.367C131.416 67.789 131.778 67.3527 132.277 67.058C132.776 66.752 133.354 66.599 134.011 66.599C134.691 66.599 135.292 66.7463 135.813 67.041C136.334 67.3357 136.742 67.7437 137.037 68.265C137.332 68.7863 137.479 69.3813 137.479 70.05V76H135.575V70.577C135.575 70.1123 135.484 69.7213 135.303 69.404C135.133 69.0753 134.895 68.826 134.589 68.656C134.283 68.4747 133.932 68.384 133.535 68.384C133.15 68.384 132.798 68.4747 132.481 68.656C132.175 68.826 131.931 69.0753 131.75 69.404C131.58 69.7327 131.495 70.1237 131.495 70.577V76H129.574ZM142.289 76.204C141.666 76.204 141.116 76.0963 140.64 75.881C140.175 75.6543 139.813 75.3483 139.552 74.963C139.291 74.5663 139.161 74.1017 139.161 73.569C139.161 73.0703 139.269 72.6227 139.484 72.226C139.711 71.8293 140.056 71.495 140.521 71.223C140.986 70.951 141.569 70.7583 142.272 70.645L145.468 70.118V71.631L142.646 72.124C142.136 72.2147 141.762 72.379 141.524 72.617C141.286 72.8437 141.167 73.1383 141.167 73.501C141.167 73.8523 141.297 74.1413 141.558 74.368C141.83 74.5833 142.176 74.691 142.595 74.691C143.116 74.691 143.57 74.5777 143.955 74.351C144.352 74.1243 144.658 73.824 144.873 73.45C145.088 73.0647 145.196 72.6397 145.196 72.175V69.812C145.196 69.3587 145.026 68.9903 144.686 68.707C144.357 68.4123 143.915 68.265 143.36 68.265C142.85 68.265 142.402 68.401 142.017 68.673C141.643 68.9337 141.365 69.2737 141.184 69.693L139.586 68.894C139.756 68.4407 140.034 68.044 140.419 67.704C140.804 67.3527 141.252 67.0807 141.762 66.888C142.283 66.6953 142.833 66.599 143.411 66.599C144.136 66.599 144.777 66.735 145.332 67.007C145.899 67.279 146.335 67.6587 146.641 68.146C146.958 68.622 147.117 69.1773 147.117 69.812V76H145.281V74.334L145.672 74.385C145.457 74.759 145.179 75.082 144.839 75.354C144.51 75.626 144.131 75.8357 143.7 75.983C143.281 76.1303 142.81 76.204 142.289 76.204ZM151.866 76L148.262 66.803H150.353L153.124 74.3H152.359L155.13 66.803H157.238L153.617 76H151.866ZM162.696 76.204C161.778 76.204 160.962 75.9943 160.248 75.575C159.545 75.1443 158.996 74.5663 158.599 73.841C158.202 73.1043 158.004 72.2827 158.004 71.376C158.004 70.4467 158.202 69.625 158.599 68.911C159.007 68.197 159.551 67.636 160.231 67.228C160.911 66.8087 161.682 66.599 162.543 66.599C163.234 66.599 163.852 66.718 164.396 66.956C164.94 67.194 165.399 67.5227 165.773 67.942C166.147 68.35 166.43 68.8203 166.623 69.353C166.827 69.8857 166.929 70.4523 166.929 71.053C166.929 71.2003 166.923 71.3533 166.912 71.512C166.901 71.6707 166.878 71.818 166.844 71.954H159.517V70.424H165.756L164.838 71.121C164.951 70.5657 164.912 70.0727 164.719 69.642C164.538 69.2 164.254 68.8543 163.869 68.605C163.495 68.3443 163.053 68.214 162.543 68.214C162.033 68.214 161.58 68.3443 161.183 68.605C160.786 68.8543 160.48 69.217 160.265 69.693C160.05 70.1577 159.965 70.7243 160.01 71.393C159.953 72.0163 160.038 72.5603 160.265 73.025C160.503 73.4897 160.832 73.8523 161.251 74.113C161.682 74.3737 162.169 74.504 162.713 74.504C163.268 74.504 163.739 74.3793 164.124 74.13C164.521 73.8807 164.832 73.5577 165.059 73.161L166.623 73.926C166.442 74.3567 166.158 74.7477 165.773 75.099C165.399 75.439 164.946 75.711 164.413 75.915C163.892 76.1077 163.319 76.204 162.696 76.204ZM170.364 79.757C170.24 79.757 170.104 79.7457 169.956 79.723C169.798 79.7117 169.667 79.6947 169.565 79.672V78.006C169.781 78.04 169.996 78.057 170.211 78.057C170.687 78.057 171.067 77.9323 171.35 77.683C171.634 77.445 171.775 77.0823 171.775 76.595V66.803H173.696V76.595C173.696 77.2637 173.555 77.836 173.271 78.312C172.988 78.788 172.597 79.145 172.098 79.383C171.6 79.6323 171.022 79.757 170.364 79.757ZM171.775 65.545V63.335H173.696V65.545H171.775ZM179.223 76.204C178.532 76.204 177.926 76.051 177.404 75.745C176.883 75.4277 176.475 74.9913 176.18 74.436C175.897 73.8693 175.755 73.2177 175.755 72.481V66.803H177.676V72.311C177.676 72.7303 177.761 73.0987 177.931 73.416C178.101 73.7333 178.339 73.9827 178.645 74.164C178.951 74.334 179.303 74.419 179.699 74.419C180.107 74.419 180.464 74.3283 180.77 74.147C181.076 73.9657 181.314 73.7107 181.484 73.382C181.666 73.0533 181.756 72.668 181.756 72.226V66.803H183.66V76H181.841V74.198L182.045 74.436C181.83 75.0027 181.473 75.439 180.974 75.745C180.476 76.051 179.892 76.204 179.223 76.204ZM189.303 76.204C188.363 76.204 187.535 75.9717 186.821 75.507C186.119 75.0423 185.626 74.419 185.342 73.637L186.821 72.94C187.071 73.4613 187.411 73.875 187.841 74.181C188.283 74.487 188.771 74.64 189.303 74.64C189.757 74.64 190.125 74.538 190.408 74.334C190.692 74.13 190.833 73.8523 190.833 73.501C190.833 73.2743 190.771 73.093 190.646 72.957C190.522 72.8097 190.363 72.6907 190.17 72.6C189.989 72.5093 189.802 72.4413 189.609 72.396L188.164 71.988C187.371 71.7613 186.776 71.4213 186.379 70.968C185.994 70.5033 185.801 69.965 185.801 69.353C185.801 68.7977 185.943 68.316 186.226 67.908C186.51 67.4887 186.901 67.1657 187.399 66.939C187.898 66.7123 188.459 66.599 189.082 66.599C189.921 66.599 190.669 66.8087 191.326 67.228C191.984 67.636 192.448 68.2083 192.72 68.945L191.241 69.642C191.06 69.2 190.771 68.8487 190.374 68.588C189.989 68.3273 189.553 68.197 189.065 68.197C188.646 68.197 188.312 68.299 188.062 68.503C187.813 68.6957 187.688 68.9507 187.688 69.268C187.688 69.4833 187.745 69.6647 187.858 69.812C187.972 69.948 188.119 70.0613 188.3 70.152C188.482 70.2313 188.669 70.2993 188.861 70.356L190.357 70.798C191.117 71.0133 191.7 71.3533 192.108 71.818C192.516 72.2713 192.72 72.8153 192.72 73.45C192.72 73.994 192.573 74.4757 192.278 74.895C191.995 75.303 191.598 75.626 191.088 75.864C190.578 76.0907 189.983 76.204 189.303 76.204ZM198.58 76.102C197.617 76.102 196.869 75.83 196.336 75.286C195.804 74.742 195.537 73.977 195.537 72.991V68.537H193.922V66.803H194.177C194.608 66.803 194.942 66.6783 195.18 66.429C195.418 66.1797 195.537 65.8397 195.537 65.409V64.695H197.458V66.803H199.549V68.537H197.458V72.906C197.458 73.2233 197.509 73.4953 197.611 73.722C197.713 73.9373 197.878 74.1073 198.104 74.232C198.331 74.3453 198.626 74.402 198.988 74.402C199.079 74.402 199.181 74.3963 199.294 74.385C199.408 74.3737 199.515 74.3623 199.617 74.351V76C199.459 76.0227 199.283 76.0453 199.09 76.068C198.898 76.0907 198.728 76.102 198.58 76.102ZM204.464 76V66.803H206.3V68.656L206.13 68.384C206.334 67.7833 206.662 67.3527 207.116 67.092C207.569 66.82 208.113 66.684 208.748 66.684H209.309V68.435H208.51C207.875 68.435 207.359 68.6333 206.963 69.03C206.577 69.4153 206.385 69.9707 206.385 70.696V76H204.464ZM214.941 76.204C214.023 76.204 213.207 75.9943 212.493 75.575C211.79 75.1443 211.241 74.5663 210.844 73.841C210.447 73.1043 210.249 72.2827 210.249 71.376C210.249 70.4467 210.447 69.625 210.844 68.911C211.252 68.197 211.796 67.636 212.476 67.228C213.156 66.8087 213.927 66.599 214.788 66.599C215.479 66.599 216.097 66.718 216.641 66.956C217.185 67.194 217.644 67.5227 218.018 67.942C218.392 68.35 218.675 68.8203 218.868 69.353C219.072 69.8857 219.174 70.4523 219.174 71.053C219.174 71.2003 219.168 71.3533 219.157 71.512C219.146 71.6707 219.123 71.818 219.089 71.954H211.762V70.424H218.001L217.083 71.121C217.196 70.5657 217.157 70.0727 216.964 69.642C216.783 69.2 216.499 68.8543 216.114 68.605C215.74 68.3443 215.298 68.214 214.788 68.214C214.278 68.214 213.825 68.3443 213.428 68.605C213.031 68.8543 212.725 69.217 212.51 69.693C212.295 70.1577 212.21 70.7243 212.255 71.393C212.198 72.0163 212.283 72.5603 212.51 73.025C212.748 73.4897 213.077 73.8523 213.496 74.113C213.927 74.3737 214.414 74.504 214.958 74.504C215.513 74.504 215.984 74.3793 216.369 74.13C216.766 73.8807 217.077 73.5577 217.304 73.161L218.868 73.926C218.687 74.3567 218.403 74.7477 218.018 75.099C217.644 75.439 217.191 75.711 216.658 75.915C216.137 76.1077 215.564 76.204 214.941 76.204ZM225.418 76.204C224.5 76.204 223.684 75.9943 222.97 75.575C222.267 75.1443 221.706 74.5663 221.287 73.841C220.879 73.1157 220.675 72.294 220.675 71.376C220.675 70.4693 220.879 69.6533 221.287 68.928C221.695 68.2027 222.256 67.636 222.97 67.228C223.684 66.8087 224.5 66.599 225.418 66.599C226.041 66.599 226.625 66.7123 227.169 66.939C227.713 67.1543 228.183 67.4547 228.58 67.84C228.988 68.2253 229.288 68.673 229.481 69.183L227.798 69.965C227.605 69.489 227.293 69.1093 226.863 68.826C226.443 68.5313 225.962 68.384 225.418 68.384C224.896 68.384 224.426 68.5143 224.007 68.775C223.599 69.0243 223.276 69.3813 223.038 69.846C222.8 70.2993 222.681 70.815 222.681 71.393C222.681 71.971 222.8 72.4923 223.038 72.957C223.276 73.4103 223.599 73.7673 224.007 74.028C224.426 74.2887 224.896 74.419 225.418 74.419C225.973 74.419 226.455 74.2773 226.863 73.994C227.282 73.6993 227.594 73.3083 227.798 72.821L229.481 73.62C229.299 74.1073 229.005 74.5493 228.597 74.946C228.2 75.3313 227.73 75.6373 227.186 75.864C226.642 76.0907 226.052 76.204 225.418 76.204ZM235.676 76.204C234.758 76.204 233.942 75.9943 233.228 75.575C232.526 75.1443 231.976 74.5663 231.579 73.841C231.183 73.1043 230.984 72.2827 230.984 71.376C230.984 70.4467 231.183 69.625 231.579 68.911C231.987 68.197 232.531 67.636 233.211 67.228C233.891 66.8087 234.662 66.599 235.523 66.599C236.215 66.599 236.832 66.718 237.376 66.956C237.92 67.194 238.379 67.5227 238.753 67.942C239.127 68.35 239.411 68.8203 239.603 69.353C239.807 69.8857 239.909 70.4523 239.909 71.053C239.909 71.2003 239.904 71.3533 239.892 71.512C239.881 71.6707 239.858 71.818 239.824 71.954H232.497V70.424H238.736L237.818 71.121C237.932 70.5657 237.892 70.0727 237.699 69.642C237.518 69.2 237.235 68.8543 236.849 68.605C236.475 68.3443 236.033 68.214 235.523 68.214C235.013 68.214 234.56 68.3443 234.163 68.605C233.767 68.8543 233.461 69.217 233.245 69.693C233.03 70.1577 232.945 70.7243 232.99 71.393C232.934 72.0163 233.019 72.5603 233.245 73.025C233.483 73.4897 233.812 73.8523 234.231 74.113C234.662 74.3737 235.149 74.504 235.693 74.504C236.249 74.504 236.719 74.3793 237.104 74.13C237.501 73.8807 237.813 73.5577 238.039 73.161L239.603 73.926C239.422 74.3567 239.139 74.7477 238.753 75.099C238.379 75.439 237.926 75.711 237.393 75.915C236.872 76.1077 236.3 76.204 235.676 76.204ZM241.784 76V66.803H243.705V76H241.784ZM241.784 65.545V63.335H243.705V65.545H241.784ZM248.62 76L245.016 66.803H247.107L249.878 74.3H249.113L251.884 66.803H253.992L250.371 76H248.62ZM259.45 76.204C258.532 76.204 257.716 75.9943 257.002 75.575C256.299 75.1443 255.749 74.5663 255.353 73.841C254.956 73.1043 254.758 72.2827 254.758 71.376C254.758 70.4467 254.956 69.625 255.353 68.911C255.761 68.197 256.305 67.636 256.985 67.228C257.665 66.8087 258.435 66.599 259.297 66.599C259.988 66.599 260.606 66.718 261.15 66.956C261.694 67.194 262.153 67.5227 262.527 67.942C262.901 68.35 263.184 68.8203 263.377 69.353C263.581 69.8857 263.683 70.4523 263.683 71.053C263.683 71.2003 263.677 71.3533 263.666 71.512C263.654 71.6707 263.632 71.818 263.598 71.954H256.271V70.424H262.51L261.592 71.121C261.705 70.5657 261.665 70.0727 261.473 69.642C261.291 69.2 261.008 68.8543 260.623 68.605C260.249 68.3443 259.807 68.214 259.297 68.214C258.787 68.214 258.333 68.3443 257.937 68.605C257.54 68.8543 257.234 69.217 257.019 69.693C256.803 70.1577 256.718 70.7243 256.764 71.393C256.707 72.0163 256.792 72.5603 257.019 73.025C257.257 73.4897 257.585 73.8523 258.005 74.113C258.435 74.3737 258.923 74.504 259.467 74.504C260.022 74.504 260.492 74.3793 260.878 74.13C261.274 73.8807 261.586 73.5577 261.813 73.161L263.377 73.926C263.195 74.3567 262.912 74.7477 262.527 75.099C262.153 75.439 261.699 75.711 261.167 75.915C260.645 76.1077 260.073 76.204 259.45 76.204ZM269.808 76.204C268.924 76.204 268.13 75.9943 267.428 75.575C266.736 75.1443 266.187 74.5663 265.779 73.841C265.382 73.1157 265.184 72.2997 265.184 71.393C265.184 70.4863 265.388 69.6703 265.796 68.945C266.204 68.2197 266.753 67.6473 267.445 67.228C268.136 66.8087 268.918 66.599 269.791 66.599C270.527 66.599 271.179 66.7463 271.746 67.041C272.312 67.3357 272.76 67.7437 273.089 68.265L272.8 68.707V63.131H274.704V76H272.885V74.13L273.106 74.487C272.788 75.0423 272.335 75.4673 271.746 75.762C271.156 76.0567 270.51 76.204 269.808 76.204ZM269.995 74.419C270.527 74.419 271.003 74.2887 271.423 74.028C271.853 73.7673 272.188 73.4103 272.426 72.957C272.675 72.4923 272.8 71.971 272.8 71.393C272.8 70.815 272.675 70.2993 272.426 69.846C272.188 69.3927 271.853 69.0357 271.423 68.775C271.003 68.5143 270.527 68.384 269.995 68.384C269.462 68.384 268.98 68.5143 268.55 68.775C268.119 69.0357 267.785 69.3927 267.547 69.846C267.309 70.2993 267.19 70.815 267.19 71.393C267.19 71.971 267.309 72.4923 267.547 72.957C267.785 73.4103 268.113 73.7673 268.533 74.028C268.963 74.2887 269.451 74.419 269.995 74.419ZM284.542 76.204C283.749 76.204 283.012 76.0567 282.332 75.762C281.652 75.456 281.074 75.0423 280.598 74.521C280.122 73.9997 279.771 73.399 279.544 72.719L281.244 72.005C281.55 72.787 281.998 73.3877 282.587 73.807C283.176 74.2263 283.856 74.436 284.627 74.436C285.08 74.436 285.477 74.368 285.817 74.232C286.157 74.0847 286.418 73.8807 286.599 73.62C286.792 73.3593 286.888 73.059 286.888 72.719C286.888 72.2543 286.758 71.886 286.497 71.614C286.236 71.342 285.851 71.1267 285.341 70.968L282.961 70.22C282.009 69.9253 281.284 69.4777 280.785 68.877C280.286 68.265 280.037 67.551 280.037 66.735C280.037 66.021 280.213 65.3977 280.564 64.865C280.915 64.321 281.397 63.896 282.009 63.59C282.632 63.284 283.341 63.131 284.134 63.131C284.893 63.131 285.585 63.267 286.208 63.539C286.831 63.7997 287.364 64.1623 287.806 64.627C288.259 65.0917 288.588 65.63 288.792 66.242L287.126 66.973C286.877 66.3043 286.486 65.7887 285.953 65.426C285.432 65.0633 284.825 64.882 284.134 64.882C283.715 64.882 283.346 64.9557 283.029 65.103C282.712 65.239 282.462 65.443 282.281 65.715C282.111 65.9757 282.026 66.2817 282.026 66.633C282.026 67.041 282.156 67.4037 282.417 67.721C282.678 68.0383 283.074 68.2763 283.607 68.435L285.817 69.132C286.826 69.438 287.585 69.88 288.095 70.458C288.605 71.0247 288.86 71.733 288.86 72.583C288.86 73.2857 288.673 73.909 288.299 74.453C287.936 74.997 287.432 75.4277 286.786 75.745C286.14 76.051 285.392 76.204 284.542 76.204ZM283.76 77.7V61.635H285.12V77.7H283.76ZM294.886 76.204C294.217 76.204 293.588 76.085 292.999 75.847C292.409 75.5977 291.899 75.252 291.469 74.81C291.038 74.368 290.732 73.8353 290.551 73.212L292.234 72.566C292.449 73.1667 292.8 73.6257 293.288 73.943C293.775 74.2603 294.308 74.419 294.886 74.419C295.362 74.419 295.781 74.3113 296.144 74.096C296.506 73.8807 296.79 73.586 296.994 73.212C297.209 72.838 297.317 72.413 297.317 71.937C297.317 71.4497 297.209 71.0247 296.994 70.662C296.79 70.288 296.506 69.999 296.144 69.795C295.781 69.5797 295.362 69.472 294.886 69.472C294.41 69.472 293.973 69.5797 293.577 69.795C293.18 70.0103 292.891 70.2993 292.71 70.662L291.095 70.305L292.081 63.335H298.83V65.035H292.863L293.628 64.202L292.897 69.54L292.268 69.115C292.608 68.639 293.021 68.2933 293.509 68.078C293.996 67.8627 294.551 67.755 295.175 67.755C296.002 67.755 296.722 67.942 297.334 68.316C297.957 68.6787 298.439 69.1773 298.779 69.812C299.13 70.4353 299.306 71.1437 299.306 71.937C299.306 72.7417 299.113 73.467 298.728 74.113C298.342 74.759 297.815 75.269 297.147 75.643C296.489 76.017 295.736 76.204 294.886 76.204ZM306.365 76.204C305.356 76.204 304.472 75.932 303.713 75.388C302.953 74.8327 302.358 74.0677 301.928 73.093C301.508 72.107 301.299 70.9623 301.299 69.659C301.299 68.3443 301.508 67.1997 301.928 66.225C302.358 65.2503 302.948 64.491 303.696 63.947C304.455 63.403 305.339 63.131 306.348 63.131C307.356 63.131 308.235 63.403 308.983 63.947C309.742 64.491 310.331 65.256 310.751 66.242C311.181 67.2167 311.397 68.3557 311.397 69.659C311.397 70.9623 311.187 72.107 310.768 73.093C310.348 74.0677 309.759 74.8327 309 75.388C308.252 75.932 307.373 76.204 306.365 76.204ZM306.365 74.368C306.988 74.368 307.526 74.1753 307.98 73.79C308.433 73.4047 308.784 72.8607 309.034 72.158C309.283 71.4553 309.408 70.6223 309.408 69.659C309.408 68.6957 309.283 67.8627 309.034 67.16C308.784 66.4573 308.433 65.9133 307.98 65.528C307.526 65.1427 306.982 64.95 306.348 64.95C305.724 64.95 305.186 65.1427 304.733 65.528C304.279 65.9133 303.928 66.4573 303.679 67.16C303.429 67.8627 303.305 68.6957 303.305 69.659C303.305 70.611 303.429 71.444 303.679 72.158C303.928 72.8607 304.279 73.4047 304.733 73.79C305.197 74.1753 305.741 74.368 306.365 74.368ZM320.774 76.204C319.89 76.204 319.097 75.9943 318.394 75.575C317.703 75.1443 317.153 74.5663 316.745 73.841C316.349 73.1157 316.15 72.2997 316.15 71.393C316.15 70.4863 316.354 69.6703 316.762 68.945C317.17 68.2197 317.72 67.6473 318.411 67.228C319.103 66.8087 319.885 66.599 320.757 66.599C321.494 66.599 322.146 66.7463 322.712 67.041C323.279 67.3357 323.727 67.7437 324.055 68.265L323.766 68.707V63.131H325.67V76H323.851V74.13L324.072 74.487C323.755 75.0423 323.302 75.4673 322.712 75.762C322.123 76.0567 321.477 76.204 320.774 76.204ZM320.961 74.419C321.494 74.419 321.97 74.2887 322.389 74.028C322.82 73.7673 323.154 73.4103 323.392 72.957C323.642 72.4923 323.766 71.971 323.766 71.393C323.766 70.815 323.642 70.2993 323.392 69.846C323.154 69.3927 322.82 69.0357 322.389 68.775C321.97 68.5143 321.494 68.384 320.961 68.384C320.429 68.384 319.947 68.5143 319.516 68.775C319.086 69.0357 318.751 69.3927 318.513 69.846C318.275 70.2993 318.156 70.815 318.156 71.393C318.156 71.971 318.275 72.4923 318.513 72.957C318.751 73.4103 319.08 73.7673 319.499 74.028C319.93 74.2887 320.417 74.419 320.961 74.419ZM327.913 76V66.803H329.834V76H327.913ZM327.913 65.545V63.335H329.834V65.545H327.913ZM334.749 76L331.145 66.803H333.236L336.007 74.3H335.242L338.013 66.803H340.121L336.5 76H334.749ZM341.427 76V66.803H343.348V76H341.427ZM341.427 65.545V63.335H343.348V65.545H341.427ZM349.844 76.204C348.96 76.204 348.166 75.9943 347.464 75.575C346.772 75.1443 346.223 74.5663 345.815 73.841C345.418 73.1157 345.22 72.2997 345.22 71.393C345.22 70.4863 345.424 69.6703 345.832 68.945C346.24 68.2197 346.789 67.6473 347.481 67.228C348.172 66.8087 348.954 66.599 349.827 66.599C350.563 66.599 351.215 66.7463 351.782 67.041C352.348 67.3357 352.796 67.7437 353.125 68.265L352.836 68.707V63.131H354.74V76H352.921V74.13L353.142 74.487C352.824 75.0423 352.371 75.4673 351.782 75.762C351.192 76.0567 350.546 76.204 349.844 76.204ZM350.031 74.419C350.563 74.419 351.039 74.2887 351.459 74.028C351.889 73.7673 352.224 73.4103 352.462 72.957C352.711 72.4923 352.836 71.971 352.836 71.393C352.836 70.815 352.711 70.2993 352.462 69.846C352.224 69.3927 351.889 69.0357 351.459 68.775C351.039 68.5143 350.563 68.384 350.031 68.384C349.498 68.384 349.016 68.5143 348.586 68.775C348.155 69.0357 347.821 69.3927 347.583 69.846C347.345 70.2993 347.226 70.815 347.226 71.393C347.226 71.971 347.345 72.4923 347.583 72.957C347.821 73.4103 348.149 73.7673 348.569 74.028C348.999 74.2887 349.487 74.419 350.031 74.419ZM361.3 76.204C360.382 76.204 359.566 75.9943 358.852 75.575C358.15 75.1443 357.6 74.5663 357.203 73.841C356.807 73.1043 356.608 72.2827 356.608 71.376C356.608 70.4467 356.807 69.625 357.203 68.911C357.611 68.197 358.155 67.636 358.835 67.228C359.515 66.8087 360.286 66.599 361.147 66.599C361.839 66.599 362.456 66.718 363 66.956C363.544 67.194 364.003 67.5227 364.377 67.942C364.751 68.35 365.035 68.8203 365.227 69.353C365.431 69.8857 365.533 70.4523 365.533 71.053C365.533 71.2003 365.528 71.3533 365.516 71.512C365.505 71.6707 365.482 71.818 365.448 71.954H358.121V70.424H364.36L363.442 71.121C363.556 70.5657 363.516 70.0727 363.323 69.642C363.142 69.2 362.859 68.8543 362.473 68.605C362.099 68.3443 361.657 68.214 361.147 68.214C360.637 68.214 360.184 68.3443 359.787 68.605C359.391 68.8543 359.085 69.217 358.869 69.693C358.654 70.1577 358.569 70.7243 358.614 71.393C358.558 72.0163 358.643 72.5603 358.869 73.025C359.107 73.4897 359.436 73.8523 359.855 74.113C360.286 74.3737 360.773 74.504 361.317 74.504C361.873 74.504 362.343 74.3793 362.728 74.13C363.125 73.8807 363.437 73.5577 363.663 73.161L365.227 73.926C365.046 74.3567 364.763 74.7477 364.377 75.099C364.003 75.439 363.55 75.711 363.017 75.915C362.496 76.1077 361.924 76.204 361.3 76.204ZM367.408 76V66.803H369.244V68.605L369.023 68.367C369.25 67.789 369.612 67.3527 370.111 67.058C370.61 66.752 371.188 66.599 371.845 66.599C372.525 66.599 373.126 66.7463 373.647 67.041C374.168 67.3357 374.576 67.7437 374.871 68.265C375.166 68.7863 375.313 69.387 375.313 70.067V76H373.409V70.577C373.409 70.1123 373.324 69.7213 373.154 69.404C372.984 69.0753 372.74 68.826 372.423 68.656C372.117 68.4747 371.766 68.384 371.369 68.384C370.972 68.384 370.615 68.4747 370.298 68.656C369.992 68.826 369.754 69.0753 369.584 69.404C369.414 69.7327 369.329 70.1237 369.329 70.577V76H367.408ZM381.619 76.204C380.735 76.204 379.942 75.9943 379.239 75.575C378.548 75.1443 377.998 74.5663 377.59 73.841C377.193 73.1157 376.995 72.2997 376.995 71.393C376.995 70.4863 377.199 69.6703 377.607 68.945C378.015 68.2197 378.565 67.6473 379.256 67.228C379.947 66.8087 380.729 66.599 381.602 66.599C382.339 66.599 382.99 66.7463 383.557 67.041C384.124 67.3357 384.571 67.7437 384.9 68.265L384.611 68.707V63.131H386.515V76H384.696V74.13L384.917 74.487C384.6 75.0423 384.146 75.4673 383.557 75.762C382.968 76.0567 382.322 76.204 381.619 76.204ZM381.806 74.419C382.339 74.419 382.815 74.2887 383.234 74.028C383.665 73.7673 383.999 73.4103 384.237 72.957C384.486 72.4923 384.611 71.971 384.611 71.393C384.611 70.815 384.486 70.2993 384.237 69.846C383.999 69.3927 383.665 69.0357 383.234 68.775C382.815 68.5143 382.339 68.384 381.806 68.384C381.273 68.384 380.792 68.5143 380.361 68.775C379.93 69.0357 379.596 69.3927 379.358 69.846C379.12 70.2993 379.001 70.815 379.001 71.393C379.001 71.971 379.12 72.4923 379.358 72.957C379.596 73.4103 379.925 73.7673 380.344 74.028C380.775 74.2887 381.262 74.419 381.806 74.419ZM389.693 72.226L389.557 63.335H391.512L391.393 72.226H389.693ZM389.557 76V73.79H391.512V76H389.557Z" fill="#0B0924"/>
<defs>
<filter id="filter0_d_0_1962" x="0.205454" y="0.205454" width="459.589" height="139.589" filterUnits="userSpaceOnUse" color-interpolation-filters="sRGB">
<feFlood flood-opacity="0" result="BackgroundImageFix"/>
<feColorMatrix in="SourceAlpha" type="matrix" values="0 0 0 0 0 0 0 0 0 0 0 0 0 0 0 0 0 0 127 0" result="hardAlpha"/>
<feMorphology radius="3.55091" operator="erode" in="SourceAlpha" result="effect1_dropShadow_0_1962"/>
<feOffset/>
<feGaussianBlur stdDeviation="23.6727"/>
<feComposite in2="hardAlpha" operator="out"/>
<feColorMatrix type="matrix" values="0 0 0 0 0.0470588 0 0 0 0 0.0313726 0 0 0 0 0.223529 0 0 0 0.22 0"/>
<feBlend mode="normal" in2="BackgroundImageFix" result="effect1_dropShadow_0_1962"/>
<feBlend mode="normal" in="SourceGraphic" in2="effect1_dropShadow_0_1962" result="shape"/>
</filter>
<clipPath id="clip0_0_1962">
<rect x="52" y="52" width="36" height="35" rx="17.5" fill="white"/>
</clipPath>
</defs>
</svg>
